<svg width="22" height="25" viewBox="0 0 22 25" fill="none" xmlns="http://www.w3.org/2000/svg">
<path d="M7 4.25H2.5C1.67157 4.25 1 4.92157 1 5.75V21.75C1 22.5784 1.67157 23.25 2.5 23.25H19.5C20.3284 23.25 21 22.5784 21 21.75V5.75C21 4.92157 20.3284 4.25 19.5 4.25H18.583V3.25H19.5C20.8807 3.25 22 4.36929 22 5.75V21.75C22 23.1307 20.8807 24.25 19.5 24.25H2.5C1.11929 24.25 1.61064e-08 23.1307 0 21.75V5.75C2.57706e-07 4.36929 1.11929 3.25 2.5 3.25H7V4.25ZM6.5 17.25C6.77614 17.25 7 17.4739 7 17.75V20.75C7 21.0261 6.77614 21.25 6.5 21.25H3.5L3.39941 21.2402C3.17145 21.1937 3 20.9917 3 20.75V17.75C3 17.5083 3.17145 17.3063 3.39941 17.2598L3.5 17.25H6.5ZM12.5 17.25C12.7761 17.25 13 17.4739 13 17.75V20.75C13 21.0261 12.7761 21.25 12.5 21.25H9.5L9.39941 21.2402C9.17145 21.1937 9 20.9917 9 20.75V17.75C9 17.5083 9.17145 17.3063 9.39941 17.2598L9.5 17.25H12.5ZM18.5 17.25C18.7761 17.25 19 17.4739 19 17.75V20.75C19 21.0261 18.7761 21.25 18.5 21.25H15.5L15.3994 21.2402C15.1714 21.1937 15 20.9917 15 20.75V17.75C15 17.5083 15.1714 17.3063 15.3994 17.2598L15.5 17.25H18.5ZM4 20.25H6V18.25H4V20.25ZM10 20.25H12V18.25H10V20.25ZM16 20.25H18V18.25H16V20.25ZM6.5 11.25C6.77614 11.25 7 11.4739 7 11.75V14.75C7 15.0261 6.77614 15.25 6.5 15.25H3.5L3.39941 15.2402C3.17145 15.1937 3 14.9917 3 14.75V11.75C3 11.5083 3.17145 11.3063 3.39941 11.2598L3.5 11.25H6.5ZM12.5 11.25C12.7761 11.25 13 11.4739 13 11.75V14.75C13 15.0261 12.7761 15.25 12.5 15.25H9.5L9.39941 15.2402C9.17145 15.1937 9 14.9917 9 14.75V11.75C9 11.5083 9.17145 11.3063 9.39941 11.2598L9.5 11.25H12.5ZM18.5 11.25C18.7761 11.25 19 11.4739 19 11.75V14.75C19 15.0261 18.7761 15.25 18.5 15.25H15.5L15.3994 15.2402C15.1714 15.1937 15 14.9917 15 14.75V11.75C15 11.5083 15.1714 11.3063 15.3994 11.2598L15.5 11.25H18.5ZM4 14.25H6V12.25H4V14.25ZM10 14.25H12V12.25H10V14.25ZM16 14.25H18V12.25H16V14.25ZM19 9.25H3V8.25H19V9.25ZM6 0.75C7.91086 0.75 9.4998 2.23469 9.5 4.11426C9.5 5.11943 9.04108 6.01735 8.32422 6.62988L8 6.25L7.6748 5.87012C8.18569 5.43358 8.5 4.80609 8.5 4.11426C8.4998 2.82998 7.40259 1.75 6 1.75V0.75ZM14 0.75C15.9109 0.75 17.4998 2.23469 17.5 4.11426C17.5 5.11943 17.0411 6.01735 16.3242 6.62988L16 6.25L15.6748 5.87012C16.1857 5.43358 16.5 4.80609 16.5 4.11426C16.4998 2.82998 15.4026 1.75 14 1.75V0.75ZM15.2002 4.25H10.5332V3.25H15.2002V4.25Z" fill="#006B4B"/>
</svg>
