<svg width="177" height="275" viewBox="0 0 177 275" fill="none" xmlns="http://www.w3.org/2000/svg">
<path d="M160.527 90.5408C163.958 86.9441 169.654 86.8092 173.25 90.2391C176.847 93.669 176.981 99.3647 173.552 102.962C151.44 126.15 153.316 148.549 155.303 172.262C156.52 186.781 157.778 201.796 153.026 216.427C147.637 233.018 135.194 246.571 114.988 257.863C113.598 258.639 112.091 259.008 110.605 259.008C107.451 259.007 104.39 257.346 102.742 254.397C100.317 250.058 101.869 244.575 106.209 242.151C122.494 233.051 131.932 223.11 135.908 210.866C139.541 199.684 138.486 187.093 137.369 173.764C135.241 148.369 132.829 119.587 160.527 90.5408Z" fill="#F8BA66"/>
<path d="M58.7002 0C58.7396 0.0260878 67.3797 5.76264 67.6504 23.1738L66.002 24.0303C105.626 24.7758 108.395 51.2925 108.404 51.3789C109.986 54.7662 118.975 61.4015 119.016 61.4316C119.016 61.4316 113.431 80.4205 101.145 86.5635C101.02 86.6258 100.894 86.6854 100.77 86.7461C106.635 130.45 145.356 138.078 145.356 189.642C145.356 239.428 123.836 261.01 91.4365 265.078C91.2205 267.421 89.9563 269.596 87.8994 270.904C85.3414 272.53 81.7447 273.542 77.7607 273.542C70.7257 273.542 64.8972 270.387 63.8652 266.268C63.8272 266.115 63.7995 265.962 63.7793 265.807H60.7471C60.7269 265.962 60.6992 266.115 60.6611 266.268C59.6292 270.386 53.8024 273.542 46.7666 273.542C42.7826 273.542 39.185 272.53 36.627 270.904C33.8522 269.139 32.518 265.797 33.2568 262.593C33.2613 262.575 33.2651 262.557 33.2695 262.539C14.3591 252.085 0 217.915 0 180.054C2.66529e-05 134.863 9.86939 77.8735 30.6221 43.002L30.6455 43.0127C30.7991 42.7325 30.9561 42.4554 31.1152 42.1807L31.1143 42.1816C36.4786 31.8672 58.7002 0 58.7002 0Z" fill="#F7AE4D"/>
<path d="M21.2787 161.834C21.4921 166.731 21.85 171.505 22.3656 176.365L22.5668 178.192C22.6015 178.497 22.6363 178.803 22.6722 179.109L22.8959 180.951L23.1342 182.809C23.1752 183.12 23.2169 183.431 23.2592 183.743L23.5209 185.627L23.7982 187.531L24.0912 189.456L24.3998 191.406L24.725 193.385L25.0658 195.394L25.4232 197.435C25.4841 197.778 25.5455 198.122 25.6078 198.468L25.9906 200.562C26.0557 200.914 26.1214 201.267 26.1879 201.622L26.5951 203.775L27.0199 205.97L27.4613 208.209L28.4369 213.017L31.1449 226.184L31.559 228.262L32.0619 230.852L32.4047 232.675L32.8187 234.967L33.1879 237.127L33.3568 238.166L33.517 239.184L33.6664 240.181C33.7342 240.641 33.7989 241.096 33.8607 241.544L34.0375 242.872C35.0964 251.183 35.0552 257.502 33.7445 262.705C33.0503 265.716 34.311 268.839 36.8959 270.483C39.4452 272.103 42.9784 273.041 46.766 273.041C53.5285 273.041 59.1999 270.042 60.1761 266.146C60.3126 265.601 60.3194 264.992 60.2113 264.326L59.9496 262.685L59.6801 260.939L59.3109 258.454L59.0287 256.478L58.6478 253.699L58.2631 250.763L57.974 248.462L57.6849 246.08L57.3978 243.621L57.1136 241.089L56.9261 239.361C55.3227 224.354 54.3546 209.488 54.2797 195.523L54.2748 193.781H55.2748C55.2748 208.21 56.2545 223.655 57.9213 239.254L58.2015 241.829L58.4867 244.333L58.7738 246.762L58.9662 248.338L59.2543 250.634L59.5424 252.846L59.8295 254.971L60.0189 256.337L60.2074 257.661L60.4857 259.57L60.7582 261.379L61.1127 263.632C61.1416 263.812 61.17 263.99 61.1986 264.166C61.3272 264.958 61.3182 265.701 61.1459 266.389C60.0369 270.815 53.9362 274.041 46.766 274.041C42.7957 274.041 39.076 273.054 36.3588 271.326C33.4146 269.454 31.9806 265.902 32.7719 262.471C33.5788 259.267 33.8927 255.609 33.7504 251.282L33.7054 250.187C33.6237 248.522 33.4778 246.76 33.2709 244.891L33.1244 243.628C33.0463 242.989 32.9611 242.337 32.8695 241.673L32.6771 240.327L32.4496 238.831L32.2006 237.287L31.9291 235.686L31.7347 234.578L31.5287 233.438L31.3099 232.257L31.0795 231.035L30.7084 229.117L29.6644 223.929L26.9408 210.694L26.4799 208.402L26.0375 206.156L25.6117 203.956L25.2035 201.799L24.8119 199.68L24.4369 197.599L24.0785 195.553L23.7357 193.538L23.4105 191.555C23.2517 190.57 23.0984 189.595 22.9515 188.629L22.6664 186.708L22.3959 184.81C22.3522 184.495 22.3094 184.181 22.267 183.867L22.0199 181.996L21.7885 180.14L21.5717 178.296L21.3705 176.463C20.8855 171.891 20.5395 167.394 20.3217 162.798L20.2797 161.877L21.2787 161.834ZM104.247 161.877C104.087 165.565 103.844 169.183 103.515 172.819L103.343 174.638C103.283 175.245 103.221 175.854 103.157 176.463L102.955 178.296L102.739 180.14L102.507 181.996L102.26 183.867L101.997 185.757C101.952 186.073 101.907 186.39 101.861 186.708L101.575 188.629C101.428 189.595 101.275 190.57 101.117 191.555L100.79 193.538L100.449 195.553L100.09 197.599L99.7152 199.68L99.3236 201.799L98.9154 203.956L98.4896 206.156L98.0463 208.402L96.1146 217.853L94.3627 226.381L93.8187 229.117L93.4476 231.035L93.2172 232.257L92.8939 234.013L92.597 235.686L92.4135 236.761L92.1576 238.323L91.9994 239.334L91.849 240.327C90.4422 249.867 90.3427 256.863 91.7572 262.48C92.5473 265.901 91.1131 269.453 88.1683 271.326C85.4513 273.054 81.7314 274.041 77.7611 274.041C70.5916 274.041 64.4892 270.815 63.3802 266.389C63.2079 265.701 63.1999 264.958 63.3285 264.166L63.6791 261.959L64.0414 259.57L64.4135 257.004L64.6976 254.971L64.9838 252.846L65.2719 250.634L65.5609 248.338L65.849 245.961L66.1351 243.507L66.4193 240.979L66.6058 239.254C68.2059 224.279 69.1727 209.446 69.2474 195.518L69.2513 193.781H70.2513C70.2513 208.25 69.2702 223.728 67.6 239.361L67.4135 241.089L67.224 242.785L66.8422 246.08L66.5531 248.462L66.264 250.763L65.975 252.98L65.5931 255.798L65.3099 257.806L65.0306 259.718L64.7562 261.532L64.4896 263.243L64.3148 264.326C64.2067 264.992 64.2145 265.601 64.351 266.146C65.3272 270.042 70.9993 273.041 77.7611 273.041C81.5487 273.041 85.0821 272.103 87.6312 270.483C90.2167 268.838 91.4772 265.715 90.7845 262.715C89.4717 257.503 89.4307 251.183 90.4896 242.872L90.6654 241.544C90.6963 241.32 90.7287 241.094 90.7611 240.866L90.934 239.685L91.0892 238.678L91.3392 237.127L91.5179 236.062L91.7074 234.967L92.014 233.262L92.4642 230.852L92.8363 228.928L93.7552 224.354L96.6068 210.494L97.0658 208.209L97.5072 205.97L97.932 203.775L98.3392 201.622L98.7299 199.51L99.1039 197.435L99.4613 195.394L99.8021 193.385L100.127 191.406L100.436 189.456C100.486 189.133 100.536 188.811 100.584 188.49L100.87 186.575C100.916 186.258 100.961 185.942 101.006 185.627L101.268 183.743C101.31 183.431 101.352 183.12 101.393 182.809L101.631 180.951L101.855 179.109C101.891 178.803 101.926 178.497 101.96 178.192L102.161 176.365C102.645 171.809 102.989 167.328 103.206 162.75L103.248 161.834L104.247 161.877ZM101.048 87.5022C94.5777 89.2057 88.1068 89.5544 82.5531 89.1331L81.9408 89.0823C81.8454 89.0736 81.7533 89.0647 81.6644 89.0559L80.9974 88.9817L81.1322 87.9905L81.514 88.0354L82.0326 88.0862L82.6283 88.136C87.8781 88.5343 93.9748 88.2315 100.088 86.7161L100.793 86.5354L101.048 87.5022ZM119.015 61.4319C117.777 66.0835 115.188 70.735 115.161 70.7834L114.57 67.9016C114.319 66.6798 113.243 65.8021 111.995 65.802C110.911 65.802 110.031 64.923 110.031 63.8381C110.031 62.5093 111.107 61.4321 112.436 61.4319H119.015Z" fill="#AA6100"/>
</svg>
