<svg width="28" height="28" viewBox="0 0 28 28" fill="none" xmlns="http://www.w3.org/2000/svg">
<g clip-path="url(#clip0_30_9971)">
<g clip-path="url(#clip1_30_9971)">
<path fill-rule="evenodd" clip-rule="evenodd" d="M14.011 25.1714C20.1279 25.1714 25.0878 20.1695 25.0878 14C25.0878 7.83044 20.1284 2.82908 14.011 2.82908C7.89298 2.82908 2.93362 7.82988 2.93362 14C2.93362 20.1695 7.89298 25.1714 14.0104 25.1714M14.0104 26.04C20.6039 26.04 25.9491 20.6494 25.9491 14C25.9491 7.35052 20.6044 1.95996 14.0104 1.95996C7.41698 1.95996 2.07178 7.35052 2.07178 14C2.07178 20.6494 7.41698 26.04 14.011 26.04" fill="black"/>
<path fill-rule="evenodd" clip-rule="evenodd" d="M14.0114 12.7589C14.19 12.7581 14.3666 12.7222 14.5313 12.6531C14.6959 12.584 14.8454 12.4832 14.971 12.3563C15.0967 12.2295 15.1962 12.0792 15.2638 11.9139C15.3314 11.7486 15.3657 11.5716 15.3649 11.3931C15.3657 11.2145 15.3312 11.0376 15.2636 10.8723C15.1959 10.7071 15.0964 10.5568 14.9706 10.43C14.8449 10.3032 14.6954 10.2025 14.5307 10.1335C14.3661 10.0644 14.1894 10.0285 14.0108 10.0278C13.6503 10.0294 13.3052 10.1742 13.0514 10.4302C12.7976 10.6862 12.6558 11.0326 12.6573 11.3931C12.6565 11.5716 12.6909 11.7486 12.7585 11.9139C12.826 12.0792 12.9255 12.2295 13.0512 12.3563C13.1769 12.4832 13.3263 12.584 13.491 12.6531C13.6556 12.7222 13.8323 12.7581 14.0108 12.7589M14.0108 13.6275C15.2339 13.6275 16.2262 12.6273 16.2262 11.3931C16.2262 10.1594 15.2339 9.15869 14.0103 9.15869C12.7867 9.15869 11.7949 10.1594 11.7949 11.3931C11.7949 12.6273 12.7867 13.6275 14.0103 13.6275" fill="black"/>
<path fill-rule="evenodd" clip-rule="evenodd" d="M16.939 14.0433C17.3467 12.9059 17.5802 11.936 17.5802 11.2545C17.5802 9.27766 15.9848 7.6699 14.0108 7.6699C12.0368 7.6699 10.4419 9.2771 10.4419 11.255C10.4419 11.936 10.6749 12.9059 11.0826 14.0433C11.483 15.1599 12.0211 16.3589 12.5677 17.4705C13.025 18.3974 13.5062 19.3124 14.0108 20.2145C14.5157 19.3125 14.9971 18.3975 15.4545 17.4705C16.0005 16.3589 16.5392 15.1599 16.939 14.0433ZM14.5086 21.0886C15.6667 19.0558 18.4421 13.9066 18.4421 11.255C18.4421 8.79494 16.458 6.80078 14.0108 6.80078C11.5636 6.80078 9.58008 8.79494 9.58008 11.255C9.58008 13.9066 12.3549 19.0558 13.513 21.0886C13.8182 21.6245 14.0114 21.9443 14.0114 21.9443C14.0114 21.9443 14.204 21.6251 14.5092 21.0886" fill="black"/>
</g>
</g>
<defs>
<clipPath id="clip0_30_9971">
<rect width="28" height="28" fill="white"/>
</clipPath>
<clipPath id="clip1_30_9971">
<rect width="28" height="28" fill="white"/>
</clipPath>
</defs>
</svg>
