<svg width="186" height="29" viewBox="0 0 186 29" fill="none" xmlns="http://www.w3.org/2000/svg">
<g clip-path="url(#clip0_533_25132)">
<path d="M28.7766 3.16602H16.5266V25.1796H28.7766V3.16602Z" fill="#FF5F00"/>
<path d="M17.3044 14.1719C17.3025 12.0518 17.7829 9.95909 18.7093 8.05214C19.6357 6.14519 20.9838 4.474 22.6516 3.16508C20.5863 1.54172 18.106 0.532172 15.4941 0.251833C12.8821 -0.0285066 10.244 0.431661 7.88128 1.57976C5.51853 2.72786 3.52647 4.51757 2.13278 6.7443C0.739086 8.97103 0 11.545 0 14.1719C0 16.7988 0.739086 19.3727 2.13278 21.5995C3.52647 23.8262 5.51853 25.6159 7.88128 26.764C10.244 27.9121 12.8821 28.3723 15.4941 28.0919C18.106 27.8116 20.5863 26.802 22.6516 25.1787C20.9839 23.8697 19.6358 22.1986 18.7093 20.2916C17.7829 18.3847 17.3025 16.2919 17.3044 14.1719Z" fill="#EB001B"/>
<path d="M45.3025 14.1719C45.3026 16.7988 44.5636 19.3727 43.17 21.5994C41.7764 23.8262 39.7844 25.6159 37.4217 26.764C35.059 27.9121 32.4209 28.3723 29.809 28.0919C27.1972 27.8116 24.7168 26.802 22.6516 25.1787C24.3179 23.8684 25.665 22.197 26.5912 20.2903C27.5175 18.3837 27.9988 16.2916 27.9988 14.1719C27.9988 12.0522 27.5175 9.96009 26.5912 8.05344C25.665 6.14679 24.3179 4.47533 22.6516 3.16509C24.7168 1.54172 27.1972 0.532166 29.809 0.251829C32.4209 -0.0285071 35.059 0.431682 37.4217 1.57979C39.7844 2.72791 41.7764 4.51762 43.17 6.74436C44.5636 8.97109 45.3026 11.545 45.3025 14.1719Z" fill="#F79E1B"/>
<path d="M59.8209 28.3446H59.3025V23.6207V14.1723V4.72383V0H59.8209V9.44806V18.8965V28.3446Z" fill="white"/>
<path d="M178.135 19.3796V15.2397H179.064L182.007 19.3796H185.394L181.332 13.9618L185.362 9.14607H181.986L179.106 12.7896H178.135V4.17188H175.518V19.3796H178.135Z" fill="white"/>
<path d="M167.202 13.772V19.3798H164.583V9.1463H167.202V10.3502C167.568 9.80811 168.015 9.42616 168.542 9.20438C169.07 8.9826 169.686 8.87171 170.27 8.87171C170.847 8.87171 171.379 8.96852 171.868 9.16214C172.357 9.35575 172.777 9.62682 173.129 9.97533C173.481 10.3238 173.755 10.7445 173.952 11.2374C174.149 11.7302 174.247 12.2723 174.247 12.8637V19.3798H171.629V13.7509C171.629 13.0046 171.455 12.436 171.107 12.0453C170.759 11.6545 170.134 11.4591 169.501 11.4591C169.205 11.4591 168.79 11.5067 168.526 11.6017C168.262 11.6968 168.034 11.8411 167.84 12.0347C167.647 12.2283 167.492 12.4695 167.376 12.7581C167.26 13.0468 167.202 13.3847 167.202 13.772Z" fill="white"/>
<path fill-rule="evenodd" clip-rule="evenodd" d="M157.57 19.6457C158.273 19.6457 158.948 19.5172 159.448 19.2603C159.947 19.0033 160.366 18.6671 160.703 18.2517V19.3817H163.32V9.14818L160.703 9.1493V10.2793C160.366 9.85688 159.947 9.51717 159.448 9.26019C158.948 9.00321 158.273 8.8736 157.57 8.8736C156.867 8.8736 156.212 9.01089 155.608 9.28547C155.003 9.56006 154.479 9.93673 154.036 10.4155C153.592 10.8943 153.246 11.4628 152.996 12.1211C152.747 12.7794 152.622 13.4922 152.622 14.2597C152.622 15.0271 152.747 15.74 152.996 16.3983C153.246 17.0565 153.592 17.6251 154.036 18.1038C154.479 18.5826 155.003 18.9593 155.608 19.2339C156.212 19.5084 156.867 19.6457 157.57 19.6457ZM158.076 17.0794C157.676 17.0794 157.312 17.0055 156.984 16.8577C156.657 16.7098 156.38 16.5091 156.151 16.2557C155.922 16.0022 155.747 15.7048 155.623 15.3633C155.5 15.0218 155.439 14.6539 155.439 14.2597C155.439 13.8724 155.5 13.5063 155.623 13.1613C155.747 12.8163 155.922 12.5171 156.151 12.2637C156.38 12.0102 156.657 11.8095 156.984 11.6617C157.312 11.5138 157.676 11.4399 158.076 11.4399C158.47 11.4399 158.829 11.5103 159.153 11.6511C159.476 11.7919 159.754 11.9891 159.986 12.2425C160.218 12.496 160.398 12.7952 160.524 13.1402C160.651 13.4852 160.714 13.8584 160.714 14.2597C160.714 14.661 160.651 15.0341 160.524 15.3791C160.398 15.7241 160.218 16.0233 159.986 16.2768C159.754 16.5303 159.476 16.7274 159.153 16.8682C158.829 17.009 158.47 17.0794 158.076 17.0794Z" fill="white"/>
<path d="M141.474 4.22696H144.08V14.3055L144.08 14.3126C144.08 14.714 144.143 15.0871 144.27 15.4321C144.396 15.7771 144.576 16.0763 144.808 16.3298C145.04 16.5832 145.316 16.7804 145.636 16.9212C145.956 17.062 146.313 17.1324 146.707 17.1324C147.115 17.1324 147.48 17.0585 147.804 16.9106C148.128 16.7628 148.404 16.5621 148.632 16.3087C148.861 16.0552 149.037 15.7577 149.16 15.4163C149.283 15.0748 149.344 14.7069 149.344 14.3126C149.344 13.9254 149.283 13.5593 149.16 13.2143C149.037 12.8693 148.861 12.5701 148.632 12.3166C148.404 12.0632 148.128 11.8625 147.804 11.7147C147.48 11.5668 147.115 11.4929 146.707 11.4929C146.313 11.4929 145.956 11.5633 145.636 11.7041C145.535 11.7484 145.439 11.7983 145.347 11.8537V9.351C145.381 9.33233 145.416 9.31406 145.451 9.29621C145.937 9.04978 146.524 8.92657 147.213 8.92657C147.917 8.92657 148.571 9.06387 149.176 9.33845C149.781 9.61303 150.305 9.98971 150.748 10.4685C151.191 10.9472 151.539 11.5158 151.792 12.1741C152.045 12.8324 152.172 13.5452 152.172 14.3126C152.172 15.0801 152.047 15.7929 151.797 16.4512C151.548 17.1095 151.201 17.6781 150.758 18.1568C150.315 18.6356 149.791 19.0123 149.186 19.2868C148.581 19.5614 147.927 19.6987 147.224 19.6987C146.513 19.6987 145.826 19.5702 145.33 19.3132C144.834 19.0563 144.418 18.7201 144.08 18.3047V19.4347H141.474V4.22696Z" fill="white"/>
<path d="M178.135 19.3796V15.2397H179.064L182.007 19.3796H185.394L181.332 13.9618L185.362 9.14607H181.986L179.106 12.7896H178.135V4.17188H175.518V19.3796H178.135Z" stroke="white"/>
<path d="M167.202 13.772V19.3798H164.583V9.1463H167.202V10.3502C167.568 9.80811 168.015 9.42616 168.542 9.20438C169.07 8.9826 169.686 8.87171 170.27 8.87171C170.847 8.87171 171.379 8.96852 171.868 9.16214C172.357 9.35575 172.777 9.62682 173.129 9.97533C173.481 10.3238 173.755 10.7445 173.952 11.2374C174.149 11.7302 174.247 12.2723 174.247 12.8637V19.3798H171.629V13.7509C171.629 13.0046 171.455 12.436 171.107 12.0453C170.759 11.6545 170.134 11.4591 169.501 11.4591C169.205 11.4591 168.79 11.5067 168.526 11.6017C168.262 11.6968 168.034 11.8411 167.84 12.0347C167.647 12.2283 167.492 12.4695 167.376 12.7581C167.26 13.0468 167.202 13.3847 167.202 13.772Z" stroke="white"/>
<path fill-rule="evenodd" clip-rule="evenodd" d="M157.57 19.6457C158.273 19.6457 158.948 19.5172 159.448 19.2603C159.947 19.0033 160.366 18.6671 160.703 18.2517V19.3817H163.32V9.14818L160.703 9.1493V10.2793C160.366 9.85688 159.947 9.51717 159.448 9.26019C158.948 9.00321 158.273 8.8736 157.57 8.8736C156.867 8.8736 156.212 9.01089 155.608 9.28547C155.003 9.56006 154.479 9.93673 154.036 10.4155C153.592 10.8943 153.246 11.4628 152.996 12.1211C152.747 12.7794 152.622 13.4922 152.622 14.2597C152.622 15.0271 152.747 15.74 152.996 16.3983C153.246 17.0565 153.592 17.6251 154.036 18.1038C154.479 18.5826 155.003 18.9593 155.608 19.2339C156.212 19.5084 156.867 19.6457 157.57 19.6457ZM158.076 17.0794C157.676 17.0794 157.312 17.0055 156.984 16.8577C156.657 16.7098 156.38 16.5091 156.151 16.2557C155.922 16.0022 155.747 15.7048 155.623 15.3633C155.5 15.0218 155.439 14.6539 155.439 14.2597C155.439 13.8724 155.5 13.5063 155.623 13.1613C155.747 12.8163 155.922 12.5171 156.151 12.2637C156.38 12.0102 156.657 11.8095 156.984 11.6617C157.312 11.5138 157.676 11.4399 158.076 11.4399C158.47 11.4399 158.829 11.5103 159.153 11.6511C159.476 11.7919 159.754 11.9891 159.986 12.2425C160.218 12.496 160.398 12.7952 160.524 13.1402C160.651 13.4852 160.714 13.8584 160.714 14.2597C160.714 14.661 160.651 15.0341 160.524 15.3791C160.398 15.7241 160.218 16.0233 159.986 16.2768C159.754 16.5303 159.476 16.7274 159.153 16.8682C158.829 17.009 158.47 17.0794 158.076 17.0794Z" stroke="white"/>
<path d="M141.474 4.22696H144.08V14.3055L144.08 14.3126C144.08 14.714 144.143 15.0871 144.27 15.4321C144.396 15.7771 144.576 16.0763 144.808 16.3298C145.04 16.5832 145.316 16.7804 145.636 16.9212C145.956 17.062 146.313 17.1324 146.707 17.1324C147.115 17.1324 147.48 17.0585 147.804 16.9106C148.128 16.7628 148.404 16.5621 148.632 16.3087C148.861 16.0552 149.037 15.7577 149.16 15.4163C149.283 15.0748 149.344 14.7069 149.344 14.3126C149.344 13.9254 149.283 13.5593 149.16 13.2143C149.037 12.8693 148.861 12.5701 148.632 12.3166C148.404 12.0632 148.128 11.8625 147.804 11.7147C147.48 11.5668 147.115 11.4929 146.707 11.4929C146.313 11.4929 145.956 11.5633 145.636 11.7041C145.535 11.7484 145.439 11.7983 145.347 11.8537V9.351C145.381 9.33233 145.416 9.31406 145.451 9.29621C145.937 9.04978 146.524 8.92657 147.213 8.92657C147.917 8.92657 148.571 9.06387 149.176 9.33845C149.781 9.61303 150.305 9.98971 150.748 10.4685C151.191 10.9472 151.539 11.5158 151.792 12.1741C152.045 12.8324 152.172 13.5452 152.172 14.3126C152.172 15.0801 152.047 15.7929 151.797 16.4512C151.548 17.1095 151.201 17.6781 150.758 18.1568C150.315 18.6356 149.791 19.0123 149.186 19.2868C148.581 19.5614 147.927 19.6987 147.224 19.6987C146.513 19.6987 145.826 19.5702 145.33 19.3132C144.834 19.0563 144.418 18.7201 144.08 18.3047V19.4347H141.474V4.22696Z" stroke="white"/>
<path fill-rule="evenodd" clip-rule="evenodd" d="M80.0733 8.98962C80.7767 8.98962 81.4308 9.12691 82.0357 9.40149C82.6407 9.67608 83.1647 10.0527 83.6078 10.5315C84.0509 11.0103 84.3991 11.5788 84.6523 12.2371C84.9055 12.8954 85.0321 13.6083 85.0321 14.3757C85.0321 15.1431 84.9073 15.856 84.6576 16.5143C84.4079 17.1726 84.0615 17.7411 83.6184 18.2199C83.1752 18.6986 82.6512 19.0753 82.0463 19.3499C81.4414 19.6245 80.7872 19.7618 80.0839 19.7618C79.3946 19.7618 78.8055 19.6403 78.3166 19.3974L78.2102 19.3414L78.21 16.8364C78.3011 16.8911 78.3964 16.9404 78.496 16.9842C78.816 17.125 79.173 17.1954 79.5669 17.1954C79.9748 17.1954 80.3406 17.1215 80.6642 16.9737C80.9877 16.8258 81.2638 16.6252 81.4924 16.3717C81.721 16.1182 81.8968 15.8208 82.0199 15.4793C82.143 15.1378 82.2046 14.77 82.2046 14.3757C82.2046 13.9885 82.143 13.6223 82.0199 13.2773C81.8968 12.9324 81.721 12.6331 81.4924 12.3797C81.2638 12.1262 80.9877 11.9256 80.6642 11.7777C80.3406 11.6298 79.9748 11.5559 79.5669 11.5559C79.173 11.5559 78.816 11.6263 78.496 11.7671C78.176 11.9079 77.8999 12.1051 77.6678 12.3585C77.4356 12.612 77.2563 12.9112 77.1297 13.2562C77.0031 13.6012 76.9398 13.9744 76.9398 14.3757L76.9425 14.5029V23.7219L74.3337 23.7221V9.2642H76.9528V10.3942C77.2905 9.97178 77.7072 9.63207 78.2031 9.37509C78.699 9.11811 79.3699 8.98962 80.0733 8.98962ZM90.409 8.98962C91.1124 8.98962 91.7873 9.11923 92.2866 9.37621C92.7306 9.60464 93.1106 9.89843 93.4266 10.2576L93.5422 10.3953V9.26532L96.1591 9.2642V19.4977H93.5422V18.3677C93.2046 18.7831 92.786 19.1193 92.2866 19.3763C91.7873 19.6333 91.1124 19.7618 90.409 19.7618C89.7056 19.7618 89.0515 19.6245 88.4466 19.3499C87.8417 19.0753 87.3176 18.6986 86.8745 18.2199C86.4314 17.7411 86.085 17.1726 85.8353 16.5143C85.5856 15.856 85.4607 15.1431 85.4607 14.3757C85.4607 13.6083 85.5856 12.8954 85.8353 12.2371C86.085 11.5788 86.4314 11.0103 86.8745 10.5315C87.3176 10.0527 87.8417 9.67608 88.4466 9.40149C89.0515 9.12691 89.7056 8.98962 90.409 8.98962ZM107.653 6.22266V9.2642L111.196 9.26419V11.7139L107.653 11.7143V15.4529C107.653 15.7697 107.693 16.039 107.774 16.2608C107.855 16.4826 107.964 16.6621 108.101 16.7994C108.238 16.9367 108.4 17.037 108.587 17.1004C108.773 17.1638 108.972 17.1954 109.183 17.1954C109.513 17.1954 110.006 17.2061 110.34 17.0688C110.607 16.9589 110.858 16.839 111.091 16.7089L111.196 16.6483L111.196 19.2767C111.129 19.3069 111.061 19.3363 110.993 19.3647L110.763 19.4555C110.222 19.6597 109.589 19.7618 108.864 19.7618C107.591 19.7618 106.635 19.4132 105.994 18.7162C105.385 18.0524 105.066 17.1012 105.037 15.8626L105.034 15.6747V6.22266H107.653ZM128.115 8.98962C128.854 8.98962 129.528 9.11987 130.136 9.38037C130.744 9.64087 131.267 10.007 131.703 10.4787C132.139 10.9504 132.478 11.5172 132.721 12.179C132.964 12.8408 133.085 13.5695 133.085 14.3651C133.085 14.5271 133.08 14.6925 133.069 14.8615C133.061 14.9882 133.052 15.1011 133.042 15.2001L133.032 15.2945H125.784L125.817 15.4511C125.888 15.7575 125.993 16.0239 126.132 16.2502C126.294 16.5143 126.489 16.7343 126.718 16.9103C126.946 17.0863 127.205 17.2148 127.493 17.2958C127.781 17.3767 128.087 17.4172 128.411 17.4172C128.854 17.4172 129.302 17.3327 129.756 17.1638C130.153 17.0159 130.519 16.8115 130.854 16.5504L130.996 16.4351L132.61 18.2093L132.449 18.3517C131.906 18.8146 131.304 19.1596 130.642 19.3868C129.914 19.6368 129.118 19.7618 128.253 19.7618C127.472 19.7618 126.756 19.6333 126.106 19.3763C125.455 19.1193 124.896 18.7567 124.428 18.2885C123.96 17.8203 123.596 17.2571 123.336 16.5988C123.076 15.9405 122.946 15.21 122.946 14.4074C122.946 13.6047 123.072 12.8708 123.325 12.2054C123.579 11.5401 123.932 10.9698 124.386 10.4945C124.839 10.0193 125.383 9.64967 126.016 9.38565C126.649 9.12163 127.349 8.98962 128.115 8.98962ZM102.935 8.98962C103.23 8.98962 103.496 9.00898 103.731 9.0477C103.744 9.04977 103.757 9.05188 103.769 9.05403L103.769 11.6749C103.589 11.6102 103.389 11.556 103.167 11.5122C102.865 11.4523 102.573 11.4224 102.291 11.4224C101.975 11.4224 101.685 11.4717 101.421 11.5702C101.157 11.6688 100.93 11.8131 100.74 12.0032C100.55 12.1933 100.403 12.4327 100.297 12.7214C100.207 12.9688 100.155 13.2499 100.142 13.5645L100.139 13.7247V19.4977H97.4389V9.2642H100.055V10.3837C100.378 9.89786 100.781 9.54406 101.263 9.32229C101.744 9.10051 102.302 8.98962 102.935 8.98962ZM139.383 8.98962C139.678 8.98962 139.944 9.00898 140.179 9.0477C140.192 9.04977 140.204 9.05188 140.217 9.05403L140.217 11.6749C140.037 11.6102 139.836 11.556 139.615 11.5122C139.312 11.4523 139.02 11.4224 138.739 11.4224C138.423 11.4224 138.132 11.4717 137.869 11.5702C137.605 11.6688 137.378 11.8131 137.188 12.0032C136.998 12.1933 136.851 12.4327 136.745 12.7214C136.655 12.9688 136.603 13.2499 136.59 13.5645L136.587 13.7247V19.4977H133.887V9.2642H136.502V10.3837C136.826 9.89786 137.229 9.54406 137.71 9.32229C138.192 9.10051 138.75 8.98962 139.383 8.98962ZM118.154 8.98962C118.731 8.98962 119.264 9.08643 119.752 9.28004C120.241 9.47366 120.661 9.74472 121.013 10.0932C121.365 10.4417 121.639 10.8624 121.836 11.3553C122.033 11.8481 122.132 12.3902 122.132 12.9816V19.4977H119.513V13.8688C119.513 13.1225 119.339 12.5539 118.991 12.1632C118.643 11.7724 118.018 11.577 117.385 11.577C117.089 11.577 116.674 11.6246 116.41 11.7196C116.147 11.8147 115.918 11.959 115.724 12.1526C115.531 12.3462 115.376 12.5874 115.26 12.876C115.144 13.1647 115.086 13.5026 115.086 13.8899V19.4977H112.467V9.2642H115.086V10.4681C115.452 9.92602 115.899 9.54406 116.426 9.32229C116.954 9.10051 117.57 8.98962 118.154 8.98962ZM90.9154 11.5559C90.5145 11.5559 90.1505 11.6298 89.8234 11.7777C89.4964 11.9256 89.2185 12.1262 88.9899 12.3797C88.7613 12.6331 88.5855 12.9324 88.4624 13.2773C88.3393 13.6223 88.2778 13.9885 88.2778 14.3757C88.2778 14.77 88.3393 15.1378 88.4624 15.4793C88.5855 15.8208 88.7613 16.1182 88.9899 16.3717C89.2185 16.6252 89.4964 16.8258 89.8234 16.9737C90.1505 17.1215 90.5145 17.1954 90.9154 17.1954C91.3093 17.1954 91.668 17.125 91.9916 16.9842C92.3152 16.8434 92.593 16.6463 92.8251 16.3928C93.0572 16.1394 93.2366 15.8401 93.3632 15.4951C93.4898 15.1502 93.5531 14.777 93.5531 14.3757C93.5531 13.9744 93.4898 13.6012 93.3632 13.2562C93.2366 12.9112 93.0572 12.612 92.8251 12.3585C92.593 12.1051 92.3152 11.9079 91.9916 11.7671C91.668 11.6263 91.3093 11.5559 90.9154 11.5559ZM128.094 11.3658C127.44 11.3658 126.923 11.5471 126.543 11.9097C126.195 12.2421 125.956 12.6913 125.827 13.2574L125.794 13.4146H130.321C130.194 12.7528 129.941 12.2459 129.561 11.8939C129.181 11.5418 128.692 11.3658 128.094 11.3658Z" fill="white"/>
</g>
<defs>
<clipPath id="clip0_533_25132">
<rect width="185.616" height="28.3446" fill="white"/>
</clipPath>
</defs>
</svg>
