<svg width="29" height="29" viewBox="0 0 29 29" fill="none" xmlns="http://www.w3.org/2000/svg">
<g clip-path="url(#clip0_1_27865)">
<g clip-path="url(#clip1_1_27865)">
<path fill-rule="evenodd" clip-rule="evenodd" d="M14.8459 25.8613C20.9628 25.8613 25.9227 20.8594 25.9227 14.6899C25.9227 8.52038 20.9634 3.51902 14.8459 3.51902C8.72794 3.51902 3.76858 8.51982 3.76858 14.6899C3.76858 20.8594 8.72794 25.8613 14.8454 25.8613M14.8454 26.7299C21.4388 26.7299 26.784 21.3393 26.784 14.6899C26.784 8.04046 21.4394 2.6499 14.8454 2.6499C8.25194 2.6499 2.90674 8.04046 2.90674 14.6899C2.90674 21.3393 8.25194 26.7299 14.8459 26.7299" fill="black"/>
<path fill-rule="evenodd" clip-rule="evenodd" d="M14.8464 13.449C15.0249 13.4482 15.2016 13.4122 15.3662 13.3431C15.5309 13.2741 15.6803 13.1732 15.806 13.0464C15.9317 12.9196 16.0312 12.7692 16.0987 12.604C16.1663 12.4387 16.2007 12.2617 16.1999 12.0832C16.2006 11.9046 16.1662 11.7276 16.0985 11.5624C16.0309 11.3972 15.9313 11.2469 15.8056 11.1201C15.6799 10.9933 15.5304 10.8925 15.3657 10.8235C15.201 10.7545 15.0244 10.7186 14.8458 10.7179C14.4853 10.7195 14.1402 10.8642 13.8864 11.1203C13.6325 11.3763 13.4908 11.7226 13.4923 12.0832C13.4915 12.2617 13.5258 12.4387 13.5934 12.604C13.661 12.7692 13.7605 12.9196 13.8862 13.0464C14.0119 13.1732 14.1613 13.2741 14.3259 13.3431C14.4906 13.4122 14.6672 13.4482 14.8458 13.449M14.8458 14.3176C16.0688 14.3176 17.0612 13.3174 17.0612 12.0832C17.0612 10.8495 16.0688 9.84875 14.8452 9.84875C13.6216 9.84875 12.6299 10.8495 12.6299 12.0832C12.6299 13.3174 13.6216 14.3176 14.8452 14.3176" fill="black"/>
<path fill-rule="evenodd" clip-rule="evenodd" d="M17.774 14.7331C18.1817 13.5957 18.4152 12.6258 18.4152 11.9443C18.4152 9.96748 16.8198 8.35972 14.8458 8.35972C12.8718 8.35972 11.2769 9.96692 11.2769 11.9448C11.2769 12.6258 11.5098 13.5957 11.9175 14.7331C12.3179 15.8497 12.8561 17.0487 13.4026 18.1603C13.86 19.0872 14.3412 20.0022 14.8458 20.9043C15.3507 20.0023 15.8321 19.0873 16.2894 18.1603C16.8354 17.0487 17.3742 15.8497 17.774 14.7331ZM15.3436 21.7784C16.5017 19.7456 19.277 14.5964 19.277 11.9448C19.277 9.48476 17.293 7.4906 14.8458 7.4906C12.3986 7.4906 10.415 9.48476 10.415 11.9448C10.415 14.5964 13.1898 19.7456 14.3479 21.7784C14.6531 22.3144 14.8463 22.6341 14.8463 22.6341C14.8463 22.6341 15.039 22.3149 15.3442 21.7784" fill="black"/>
</g>
</g>
<defs>
<clipPath id="clip0_1_27865">
<rect width="28" height="28" fill="white" transform="translate(0.834961 0.689941)"/>
</clipPath>
<clipPath id="clip1_1_27865">
<rect width="28" height="28" fill="white" transform="translate(0.834961 0.689941)"/>
</clipPath>
</defs>
</svg>
