<svg width="28" height="28" viewBox="0 0 28 28" fill="none" xmlns="http://www.w3.org/2000/svg">
<g clip-path="url(#clip0_30_9981)">
<g clip-path="url(#clip1_30_9981)">
<path fill-rule="evenodd" clip-rule="evenodd" d="M19.9533 6.7894C20.8672 6.7894 21.6081 6.0558 21.6081 5.15028C21.6081 4.24532 20.8672 3.51172 19.9533 3.51172C19.04 3.51172 18.2991 4.24532 18.2991 5.15028C18.2991 6.0558 19.04 6.7894 19.9533 6.7894ZM19.9533 7.4446C21.2329 7.4446 22.2695 6.41756 22.2695 5.15028C22.2695 3.883 21.2329 2.85596 19.9533 2.85596C18.6743 2.85596 17.6372 3.883 17.6372 5.15028C17.6372 6.41756 18.6743 7.4446 19.9533 7.4446ZM8.04156 6.7894C8.95604 6.7894 9.69636 6.0558 9.69636 5.15028C9.69636 4.24532 8.95604 3.51172 8.04212 3.51172C7.1282 3.51172 6.38788 4.24532 6.38788 5.15028C6.38788 6.0558 7.1282 6.7894 8.04212 6.7894M8.04212 7.4446C9.32172 7.4446 10.3588 6.41756 10.3588 5.15028C10.3588 3.883 9.32116 2.85596 8.04156 2.85596C6.76196 2.85596 5.7254 3.883 5.7254 5.15028C5.7254 6.41756 6.76252 7.4446 8.04156 7.4446M17.3997 8.4414C17.4682 8.46095 17.5284 8.50222 17.5713 8.55899C17.6142 8.61576 17.6375 8.68495 17.6377 8.75612V15.6391H21.9385V8.75612C21.94 8.68668 21.9631 8.61944 22.0047 8.56382C22.0463 8.50821 22.1043 8.46702 22.1705 8.44602C22.2367 8.42502 22.3078 8.42527 22.3739 8.44674C22.44 8.46821 22.4976 8.50981 22.5388 8.56572L26.04 13.4209L25.5012 13.8017L22.6004 9.77868V15.9667C22.6003 16.0099 22.5916 16.0527 22.5749 16.0926C22.5583 16.1325 22.5339 16.1687 22.5032 16.1992C22.4725 16.2297 22.4361 16.2538 22.3961 16.2702C22.3561 16.2866 22.3133 16.295 22.27 16.2948H17.3068C17.2635 16.2951 17.2207 16.2868 17.1806 16.2704C17.1406 16.2541 17.1042 16.23 17.0734 16.1996C17.0427 16.1692 17.0183 16.133 17.0015 16.0931C16.9848 16.0533 16.976 16.0105 16.9758 15.9672V9.8722L14.4278 13.7978L13.8717 13.4433L17.0284 8.5786C17.0675 8.51898 17.1246 8.47346 17.1915 8.44876C17.2583 8.42406 17.3313 8.42148 17.3997 8.4414ZM18.9616 16.9512V25.1456H18.2996V16.9506L18.9616 16.9512ZM21.6087 16.9512V25.1456H20.9468V16.9506L21.6087 16.9512ZM10.3101 8.43188C10.3884 8.42018 10.4682 8.43691 10.5352 8.47903C10.6022 8.52115 10.6519 8.58588 10.6752 8.66148L10.8612 9.2758C11.3767 10.9753 12.3076 12.5194 13.5699 13.7687L13.804 14.0005L13.3364 14.4642L13.1023 14.2324C12.0829 13.2234 11.2639 12.0305 10.6887 10.7167V15.9672C10.6882 16.0545 10.6532 16.138 10.5912 16.1994C10.5293 16.2608 10.4455 16.2951 10.3583 16.2948H5.395C5.30777 16.2951 5.22398 16.2608 5.16203 16.1994C5.10009 16.138 5.06505 16.0545 5.0646 15.9672V9.8722L2.5166 13.7978L1.95996 13.4433L5.11668 8.5786C5.15574 8.51886 5.21298 8.47328 5.27994 8.44857C5.34689 8.42386 5.42002 8.42135 5.48852 8.4414C5.55685 8.46105 5.61695 8.50237 5.65977 8.55913C5.70259 8.61589 5.72582 8.68502 5.72596 8.75612V15.6391H10.0273V8.75612C10.0273 8.59372 10.1477 8.4554 10.3101 8.43132M7.04924 16.95V25.1445H6.38788V16.9506L7.04924 16.95ZM9.69636 16.95V25.1445H9.03444V16.9506L9.69636 16.95Z" fill="black"/>
</g>
</g>
<defs>
<clipPath id="clip0_30_9981">
<rect width="28" height="28" fill="white"/>
</clipPath>
<clipPath id="clip1_30_9981">
<rect width="28" height="28" fill="white"/>
</clipPath>
</defs>
</svg>
