<svg width="170" height="36" viewBox="0 0 170 36" fill="none" xmlns="http://www.w3.org/2000/svg">
<g clip-path="url(#clip0_23_1216)">
<path d="M36.997 3.84961H21.2471V32.1525H36.997V3.84961Z" fill="#FF5F00"/>
<path d="M22.2472 18C22.2472 12.2584 24.9354 7.14485 29.1222 3.84858C26.0602 1.4381 22.1975 0 17.9979 0C8.05746 0 0 8.05884 0 18C0 27.9412 8.05746 36 17.9979 36C22.1975 36 26.0602 34.5619 29.1222 32.1514C24.9354 28.8552 22.2472 23.7416 22.2472 18Z" fill="#EB001B"/>
<path d="M58.2448 18C58.2448 27.9405 50.1866 36 40.2461 36C36.0473 36 32.184 34.5619 29.1218 32.1514C33.3086 28.8558 35.997 23.7416 35.997 18C35.997 12.2577 33.3086 7.14416 29.1218 3.84856C32.184 1.43807 36.0473 0 40.2461 0C50.1866 0 58.2448 8.05882 58.2448 18Z" fill="#F79E1B"/>
<path d="M76.61 12.1908C77.4434 12.1908 78.225 12.3472 78.9547 12.6598C79.684 12.9725 80.3196 13.4081 80.8616 13.9666C81.4035 14.5252 81.8286 15.1901 82.1372 15.961C82.4455 16.7322 82.5998 17.5763 82.5998 18.4934C82.5998 19.4105 82.4455 20.2546 82.1372 21.0256C81.8286 21.7968 81.4035 22.4617 80.8616 23.0202C80.3196 23.5786 79.684 24.0143 78.9547 24.3269C78.225 24.6394 77.4434 24.7958 76.61 24.7958C75.7512 24.7958 75.0156 24.6374 74.4029 24.3206C73.7902 24.004 73.2753 23.5828 72.8584 23.0576V29.4851H70.2449V12.5034H72.8584V13.929C73.2753 13.4038 73.7901 12.983 74.4029 12.666C75.0156 12.3492 75.7512 12.1908 76.61 12.1908ZM76.2974 14.6542C75.7553 14.6542 75.2635 14.7524 74.8218 14.9481C74.3798 15.1441 74.0005 15.413 73.6839 15.7548C73.3669 16.0967 73.1211 16.5009 72.9461 16.9677C72.7709 17.4347 72.6834 17.9432 72.6834 18.4934C72.6834 19.0436 72.7709 19.5521 72.9461 20.0189C73.1211 20.4859 73.3669 20.8902 73.6839 21.232C74.0005 21.5739 74.3798 21.8426 74.8218 22.0385C75.2635 22.2345 75.7553 22.3324 76.2974 22.3324C76.8557 22.3324 77.3602 22.2304 77.8105 22.0259C78.2606 21.8218 78.6399 21.5467 78.9485 21.2006C79.2566 20.8547 79.4943 20.4484 79.6611 19.9814C79.8278 19.5145 79.9112 19.0186 79.9112 18.4934C79.9112 17.9682 79.8278 17.4722 79.6611 17.0052C79.4943 16.5384 79.2566 16.132 78.9485 15.786C78.6399 15.4401 78.2606 15.165 77.8105 14.9607C77.3602 14.7566 76.8557 14.6542 76.2974 14.6542ZM100.347 18.4929C100.347 22.1338 102.883 24.7957 106.751 24.7957C108.56 24.7957 109.765 24.394 111.071 23.3644L109.815 21.2548C108.836 21.958 107.806 22.3354 106.676 22.3354C104.591 22.3096 103.059 20.8031 103.059 18.4929C103.059 16.1826 104.591 14.6761 106.676 14.6504C107.806 14.6504 108.836 15.0277 109.815 15.731L111.071 13.6213C109.765 12.5917 108.56 12.1901 106.751 12.1901C102.883 12.1901 100.347 14.8519 100.347 18.4929ZM91.0349 12.2029C89.5309 12.2029 88.5532 12.9047 87.876 13.957V12.5039H85.2945V24.483H87.9017V17.7659C87.9017 15.7868 88.7529 14.6841 90.4581 14.6841C90.9845 14.6841 91.5361 14.7592 92.0867 14.9851L92.8899 12.5296C92.3131 12.3037 91.5613 12.2029 91.0349 12.2029ZM96.435 6.51367C96.6934 6.51367 96.9353 6.56173 97.1604 6.65751C97.3854 6.75345 97.5812 6.88471 97.748 7.05129C97.9147 7.2182 98.046 7.41406 98.1419 7.63903C98.2377 7.86417 98.2857 8.10602 98.2857 8.3644C98.2857 8.62279 98.2377 8.86446 98.1419 9.0896C98.046 9.31474 97.9147 9.50853 97.748 9.67114C97.5812 9.83375 97.3854 9.96088 97.1604 10.0525C96.9353 10.1443 96.6934 10.19 96.435 10.19C96.1765 10.19 95.9348 10.1443 95.7098 10.0525C95.4847 9.96088 95.2909 9.83375 95.1283 9.67114C94.9657 9.50853 94.8385 9.31474 94.7469 9.0896C94.6551 8.86446 94.6093 8.62279 94.6093 8.3644C94.6093 8.10602 94.6551 7.86417 94.7469 7.63903C94.8385 7.41406 94.9657 7.2182 95.1283 7.05129C95.2909 6.88471 95.4847 6.75345 95.7098 6.65751C95.9348 6.56173 96.1765 6.51367 96.435 6.51367ZM97.7605 24.483H95.1345V12.5034H97.7605V24.483ZM118.367 12.1908C119.2 12.1908 119.965 12.343 120.661 12.6472C121.357 12.9516 121.953 13.3809 122.449 13.9352C122.945 14.4897 123.333 15.1525 123.612 15.9236C123.892 16.6948 124.031 17.5471 124.031 18.4807C124.031 18.6476 124.027 18.8142 124.019 18.981C124.01 19.1477 123.998 19.306 123.981 19.456H115.128C115.211 19.9981 115.366 20.4608 115.591 20.8441C115.816 21.2277 116.087 21.5424 116.403 21.7882C116.72 22.0342 117.074 22.2156 117.466 22.3322C117.858 22.449 118.267 22.5072 118.692 22.5072C119.292 22.5072 119.894 22.3968 120.499 22.1758C121.103 21.9551 121.655 21.6444 122.156 21.2442L123.456 23.1075C122.722 23.7327 121.945 24.1704 121.124 24.4205C120.303 24.6706 119.438 24.7957 118.529 24.7957C117.629 24.7957 116.804 24.6456 116.053 24.3454C115.303 24.0453 114.657 23.6202 114.115 23.07C113.573 22.5198 113.152 21.857 112.852 21.0818C112.552 20.3065 112.402 19.4436 112.402 18.4933C112.402 17.5597 112.548 16.7051 112.84 15.9298C113.131 15.1544 113.54 14.4897 114.065 13.9352C114.59 13.3809 115.217 12.9516 115.947 12.6472C116.676 12.343 117.483 12.1908 118.367 12.1908ZM118.317 14.5167C117.85 14.5167 117.435 14.5877 117.072 14.7293C116.71 14.8711 116.397 15.0731 116.135 15.3358C115.872 15.5983 115.657 15.911 115.491 16.2736C115.324 16.6362 115.207 17.0345 115.14 17.4679H121.355C121.213 16.5342 120.88 15.809 120.355 15.2921C119.83 14.7751 119.15 14.5167 118.317 14.5167ZM129.346 24.483H126.72V7.50157H129.346V24.483ZM137.999 12.1908C138.832 12.1908 139.597 12.343 140.294 12.6472C140.99 12.9516 141.586 13.3809 142.082 13.9352C142.578 14.4897 142.965 15.1525 143.245 15.9236C143.524 16.6948 143.664 17.5471 143.664 18.4807C143.664 18.6476 143.659 18.8142 143.651 18.981C143.643 19.1477 143.63 19.306 143.614 19.456H134.76C134.843 19.9981 134.998 20.4608 135.223 20.8441C135.448 21.2277 135.719 21.5424 136.036 21.7882C136.352 22.0342 136.707 22.2156 137.099 22.3322C137.49 22.449 137.899 22.5072 138.324 22.5072C138.924 22.5072 139.526 22.3968 140.131 22.1758C140.735 21.9552 141.288 21.6444 141.788 21.2442L143.088 23.1076C142.355 23.7327 141.577 24.1704 140.756 24.4205C139.935 24.6706 139.07 24.7957 138.162 24.7957C137.261 24.7957 136.436 24.6456 135.686 24.3454C134.935 24.0453 134.289 23.6202 133.747 23.07C133.205 22.5198 132.785 21.857 132.484 21.0818C132.184 20.3065 132.034 19.4436 132.034 18.4933C132.034 17.5597 132.18 16.7051 132.472 15.9298C132.764 15.1544 133.172 14.4897 133.697 13.9352C134.222 13.3809 134.85 12.9516 135.579 12.6472C136.309 12.343 137.115 12.1908 137.999 12.1908ZM137.949 14.5167C137.482 14.5167 137.067 14.5877 136.705 14.7293C136.342 14.8711 136.029 15.0731 135.767 15.3358C135.504 15.5983 135.29 15.911 135.123 16.2736C134.956 16.6362 134.839 17.0345 134.773 17.4679H140.988C140.846 16.5342 140.512 15.809 139.987 15.2921C139.462 14.7751 138.782 14.5167 137.949 14.5167ZM155.959 13.457C154.706 12.6302 152.976 12.2038 151.072 12.2038C148.04 12.2038 146.085 13.6572 146.085 16.0372C146.085 17.9927 147.538 19.1951 150.219 19.5707L151.447 19.7461C152.876 19.9467 153.553 20.3223 153.553 20.9994C153.553 21.9265 152.6 22.4533 150.82 22.4533C149.016 22.4533 147.713 21.8761 146.836 21.2L145.607 23.2292C147.036 24.2823 148.842 24.7829 150.795 24.7829C154.254 24.7829 156.26 23.1541 156.26 20.8739C156.26 18.7691 154.681 17.6661 152.074 17.291L150.846 17.115C149.718 16.9653 148.816 16.7399 148.816 15.9379C148.816 15.0602 149.668 14.5344 151.096 14.5344C152.625 14.5344 154.104 15.1111 154.83 15.5618L155.959 13.457ZM168.74 13.457C167.487 12.6302 165.757 12.2038 163.853 12.2038C160.821 12.2038 158.866 13.6572 158.866 16.0372C158.866 17.9927 160.319 19.1951 163 19.5707L164.228 19.7461C165.657 19.9467 166.334 20.3223 166.334 20.9994C166.334 21.9265 165.381 22.4533 163.602 22.4533C161.797 22.4533 160.494 21.8761 159.617 21.2L158.388 23.2292C159.817 24.2823 161.623 24.7829 163.576 24.7829C167.035 24.7829 169.041 23.1541 169.041 20.8739C169.041 18.7691 167.462 17.6661 164.855 17.291L163.627 17.115C162.499 16.9653 161.597 16.7399 161.597 15.9379C161.597 15.0602 162.449 14.5344 163.877 14.5344C165.406 14.5344 166.885 15.1111 167.611 15.5618L168.74 13.457Z" fill="black"/>
</g>
<defs>
<clipPath id="clip0_23_1216">
<rect width="169.041" height="36" fill="white"/>
</clipPath>
</defs>
</svg>
