<svg width="32" height="32" viewBox="0 0 32 32" fill="none" xmlns="http://www.w3.org/2000/svg">
<circle cx="16" cy="16" r="15.25" stroke="white" stroke-width="1.5"/>
<path d="M25.5612 11.224C25.3419 10.349 24.6472 9.65625 23.8062 9.4375C22.234 9 16.0183 9 16.0183 9C16.0183 9 9.766 9 8.19378 9.4375C7.35283 9.65625 6.65814 10.349 6.43876 11.224C6 12.7552 6 16.0365 6 16.0365C6 16.0365 6 19.2812 6.43876 20.849C6.65814 21.724 7.35283 22.3802 8.19378 22.599C9.766 23 16.0183 23 16.0183 23C16.0183 23 22.234 23 23.8062 22.599C24.6472 22.3802 25.3419 21.724 25.5612 20.849C26 19.2812 26 16.0365 26 16.0365C26 16.0365 26 12.7552 25.5612 11.224ZM13.9707 18.9896V13.0833L19.1627 16.0365L13.9707 18.9896Z" fill="white"/>
</svg>
