<svg width="82" height="52" viewBox="0 0 82 52" fill="none" xmlns="http://www.w3.org/2000/svg">
<path d="M73.9517 0H7.27414C6.99644 0 6.71824 0 6.44104 0.0016194C6.20671 0.00328787 5.97293 0.00588873 5.73914 0.0122682C5.22928 0.0260576 4.71504 0.0561392 4.21156 0.146629C3.70002 0.23869 3.22402 0.388853 2.75964 0.625285C2.30312 0.857448 1.88517 1.16111 1.52297 1.52346C1.16061 1.88582 0.856946 2.30308 0.624831 2.7601C0.38835 3.22447 0.238089 3.70063 0.146667 4.21255C0.0556907 4.71619 0.0254079 5.23032 0.0116675 5.73965C0.00538622 5.97343 0.00269213 6.20721 0.00116597 6.44095C-0.000453432 6.71875 8.6368e-05 6.99635 8.6368e-05 7.27464V44.7259C8.6368e-05 45.0042 -0.000453432 45.2813 0.00116597 45.5596C0.00269213 45.7934 0.00538622 46.0272 0.0116675 46.2609C0.0254079 46.7698 0.0556907 47.284 0.146667 47.7874C0.238089 48.2996 0.38835 48.7755 0.624831 49.2399C0.856946 49.697 1.16061 50.1148 1.52297 50.4766C1.88517 50.8395 2.30312 51.1431 2.75964 51.3747C3.22402 51.6118 3.70002 51.762 4.21156 51.854C4.71504 51.9439 5.22928 51.9745 5.73914 51.9883C5.97293 51.9936 6.20671 51.9968 6.44104 51.9978C6.71824 52 6.99644 52 7.27414 52H73.9517C74.2289 52 74.5071 52 74.7842 51.9978C75.018 51.9968 75.2518 51.9936 75.4867 51.9883C75.9955 51.9745 76.5096 51.9439 77.0143 51.854C77.5252 51.762 78.0013 51.6118 78.4657 51.3747C78.9227 51.1431 79.3394 50.8395 79.7024 50.4766C80.0641 50.1148 80.3678 49.697 80.6005 49.2399C80.8375 48.7755 80.9876 48.2996 81.0786 47.7874C81.1696 47.284 81.1992 46.7698 81.213 46.2609C81.2194 46.0272 81.2225 45.7934 81.2236 45.5596C81.2257 45.2813 81.2257 45.0042 81.2257 44.7259V7.27464C81.2257 6.99635 81.2257 6.71875 81.2236 6.44095C81.2225 6.20721 81.2194 5.97343 81.213 5.73965C81.1992 5.23032 81.1696 4.71619 81.0786 4.21255C80.9876 3.70063 80.8375 3.22447 80.6005 2.7601C80.3678 2.30308 80.0641 1.88582 79.7024 1.52346C79.3394 1.16111 78.9227 0.857448 78.4657 0.625285C78.0013 0.388853 77.5252 0.23869 77.0143 0.146629C76.5096 0.0561392 75.9955 0.0260576 75.4867 0.0122682C75.2518 0.00588873 75.018 0.00328787 74.7842 0.0016194C74.5071 0 74.2289 0 73.9517 0Z" fill="#000008"/>
<path d="M73.9517 1.73325L74.7719 1.73482C74.9941 1.73639 75.2164 1.73879 75.4398 1.74488C75.8284 1.75538 76.2831 1.77643 76.7069 1.8524C77.0753 1.91874 77.3842 2.01964 77.6807 2.17058C77.9735 2.31932 78.2416 2.51424 78.4758 2.74807C78.7109 2.98347 78.906 3.2521 79.0567 3.54806C79.2068 3.84225 79.3071 4.14974 79.3731 4.52082C79.4488 4.94 79.4698 5.39589 79.4804 5.78695C79.4864 6.00768 79.4893 6.22841 79.4904 6.45439C79.4925 6.72768 79.4925 7.00081 79.4925 7.27464V44.7259C79.4925 44.9997 79.4925 45.2724 79.4904 45.5515C79.4894 45.7722 79.4864 45.9929 79.4804 46.214C79.4698 46.6045 79.4488 47.0601 79.3721 47.4843C79.3071 47.8503 79.2069 48.1578 79.056 48.4535C78.9057 48.7487 78.7108 49.017 78.4768 49.2509C78.2413 49.4865 77.974 49.6808 77.6778 49.8309C77.3835 49.9811 77.0751 50.0819 76.7103 50.1476C76.2779 50.2246 75.8042 50.2458 75.4475 50.2555C75.223 50.2606 74.9996 50.2636 74.7708 50.2647C74.4981 50.2668 74.2244 50.2667 73.9517 50.2667H7.27415C7.27052 50.2667 7.26699 50.2667 7.26331 50.2667C6.9937 50.2667 6.72356 50.2667 6.44904 50.2646C6.22522 50.2636 6.00189 50.2606 5.78597 50.2557C5.42107 50.2458 4.94707 50.2247 4.51823 50.1481C4.15033 50.0819 3.84191 49.9811 3.54374 49.829C3.25034 49.6802 2.98323 49.486 2.74763 49.2501C2.51385 49.0167 2.31957 48.7492 2.16936 48.4535C2.019 48.1581 1.9184 47.8497 1.85226 47.4793C1.7758 47.056 1.75479 46.6022 1.7443 46.2144C1.7383 45.9923 1.7358 45.7703 1.73438 45.5496L1.7333 44.8979V7.10259L1.73433 6.45233C1.7358 6.23027 1.7383 6.00827 1.7443 5.78641C1.75479 5.3982 1.7758 4.94418 1.85289 4.51734C1.91845 4.15033 2.019 3.84185 2.17014 3.54501C2.31918 3.25161 2.5138 2.98377 2.74881 2.74881C2.98289 2.51463 3.25087 2.31996 3.54614 2.1698C3.84112 2.01959 4.15013 1.91874 4.51803 1.85254C4.94192 1.77638 5.39687 1.75538 5.78651 1.74483C6.00861 1.73879 6.23072 1.73639 6.45115 1.73487L7.27415 1.73325H73.9517Z" fill="white"/>
<path d="M22.174 17.4898C22.8695 16.6199 23.3415 15.4519 23.217 14.2583C22.1989 14.3089 20.9565 14.93 20.2373 15.8005C19.5914 16.546 19.0198 17.763 19.1688 18.9065C20.3117 19.0056 21.4535 18.3352 22.174 17.4898Z" fill="#000008"/>
<path d="M23.204 19.1298C21.5443 19.0309 20.1332 20.0717 19.3406 20.0717C18.5476 20.0717 17.3338 19.1796 16.0211 19.2036C14.3125 19.2287 12.7271 20.1948 11.8601 21.7313C10.0767 24.805 11.3895 29.3644 13.1237 31.8678C13.9659 33.1063 14.9808 34.47 16.3182 34.421C17.5818 34.3714 18.0771 33.6028 19.613 33.6028C21.1478 33.6028 21.594 34.421 22.9316 34.3962C24.3187 34.3714 25.1859 33.1571 26.0281 31.9174C26.9942 30.5055 27.3897 29.1423 27.4146 29.0675C27.3897 29.0427 24.7398 28.0261 24.7152 24.978C24.6902 22.4257 26.7957 21.2117 26.8948 21.1364C25.7058 19.3779 23.8481 19.1796 23.204 19.1298Z" fill="#000008"/>
<path d="M37.6553 15.6757C41.2626 15.6757 43.7745 18.1622 43.7745 21.7825C43.7745 25.4156 41.2109 27.9151 37.5648 27.9151H33.5708V34.2667H30.6852V15.6757L37.6553 15.6757ZM33.5708 25.4929H36.8819C39.3943 25.4929 40.8242 24.1403 40.8242 21.7954C40.8242 19.4507 39.3943 18.1108 36.8949 18.1108H33.5708V25.4929Z" fill="#000008"/>
<path d="M44.5285 30.4146C44.5285 28.0438 46.3451 26.5881 49.5662 26.4077L53.2764 26.1887V25.1453C53.2764 23.6378 52.2586 22.736 50.5583 22.736C48.9475 22.736 47.9425 23.5089 47.698 24.7201H45.0698C45.2243 22.272 47.3113 20.4684 50.6612 20.4684C53.9464 20.4684 56.0463 22.2077 56.0463 24.9261V34.2667H53.3793V32.0378H53.3152C52.5294 33.5453 50.8157 34.4986 49.0379 34.4986C46.3839 34.4986 44.5285 32.8495 44.5285 30.4146ZM53.2764 29.1907V28.1214L49.9395 28.3274C48.2775 28.4434 47.3371 29.1778 47.3371 30.3373C47.3371 31.5224 48.3162 32.2955 49.8108 32.2955C51.7561 32.2955 53.2764 30.9556 53.2764 29.1907Z" fill="#000008"/>
<path d="M58.5641 39.2528V36.9981C58.7699 37.0495 59.2336 37.0495 59.4657 37.0495C60.754 37.0495 61.4498 36.5085 61.8747 35.1171C61.8747 35.0913 62.1197 34.2926 62.1197 34.2797L57.2242 20.7132H60.2385L63.6659 31.7417H63.7171L67.1445 20.7132H70.0819L65.0054 34.9752C63.8464 38.2607 62.5064 39.3171 59.6978 39.3171C59.4657 39.3171 58.7699 39.2913 58.5641 39.2528Z" fill="#000008"/>
</svg>
