<svg width="28" height="28" viewBox="0 0 28 28" fill="none" xmlns="http://www.w3.org/2000/svg">
<g clip-path="url(#clip0_30_9989)">
<g clip-path="url(#clip1_30_9989)">
<path fill-rule="evenodd" clip-rule="evenodd" d="M2.85204 14C2.85204 7.84276 7.84276 2.85204 14 2.85204C20.1572 2.85204 25.1479 7.84276 25.1479 14C25.1479 20.1572 20.1572 25.1479 14 25.1479C7.84276 25.1479 2.85204 20.1572 2.85204 14ZM14 1.95996C7.35052 1.95996 1.95996 7.35052 1.95996 14C1.95996 20.6494 7.35052 26.04 14 26.04C20.6494 26.04 26.04 20.6494 26.04 14C26.04 7.35052 20.6494 1.95996 14 1.95996ZM4.63564 14C4.63564 8.82836 8.82836 4.63564 14 4.63564C19.1716 4.63564 23.3643 8.82836 23.3643 14C23.3643 19.1716 19.1716 23.3643 14 23.3643C8.82836 23.3643 4.63564 19.1716 4.63564 14ZM14 3.74356C8.33556 3.74356 3.74356 8.33556 3.74356 14C3.74356 19.6644 8.33556 24.2564 14 24.2564C19.6644 24.2564 24.2564 19.6644 24.2564 14C24.2564 8.33556 19.6644 3.74356 14 3.74356ZM14.4457 7.01396V5.97348H13.5542V7.01396C13.8511 6.99525 14.1488 6.99525 14.4457 7.01396ZM19.358 9.49476C19.166 9.2674 18.9604 9.05236 18.7415 8.85076L19.5176 8.07404L20.1482 8.7046L19.358 9.49476ZM20.9686 14.6692C20.9966 14.3727 21.006 14.0747 20.9966 13.7771H22.2499V14.6686L20.9686 14.6692ZM18.5046 19.358C18.7322 19.1665 18.9475 18.9608 19.1492 18.742L20.1488 19.7411L19.5182 20.3716L18.5046 19.358ZM13.5542 20.986C13.8511 21.0047 14.1488 21.0047 14.4457 20.986V22.4728H13.5542V20.986ZM8.8502 18.7415C9.0518 18.9599 9.2674 19.166 9.49476 19.3575L8.48116 20.3711L7.8506 19.7411L8.8502 18.7415ZM7.00332 13.7771C6.9942 14.0745 7.00355 14.3723 7.03132 14.6686H5.75116V13.7771H7.00332ZM9.25844 8.85076C9.03952 9.05239 8.83359 9.26767 8.64188 9.49532L7.85116 8.7046L8.48172 8.07404L9.25844 8.85076ZM14.1848 13.5542L11.77 11.1395L11.1395 11.7706L13.6847 14.3152C13.7683 14.3988 13.8817 14.4457 14 14.4457H18.4592V13.5542H14.1848Z" fill="black"/>
</g>
</g>
<defs>
<clipPath id="clip0_30_9989">
<rect width="28" height="28" fill="white"/>
</clipPath>
<clipPath id="clip1_30_9989">
<rect width="28" height="28" fill="white"/>
</clipPath>
</defs>
</svg>
