<svg width="145" height="20" viewBox="0 0 145 20" fill="none" xmlns="http://www.w3.org/2000/svg">
<g opacity="0.5" clip-path="url(#clip0_1_29105)">
<path d="M3.94964 5.6C4.38564 5.6 4.77564 5.658 5.11964 5.774C5.46764 5.886 5.76164 6.052 6.00164 6.272C6.24164 6.488 6.42564 6.754 6.55364 7.07C6.68164 7.382 6.74564 7.738 6.74564 8.138C6.74564 8.534 6.68164 8.89 6.55364 9.206C6.42564 9.518 6.24164 9.782 6.00164 9.998C5.76164 10.214 5.46764 10.38 5.11964 10.496C4.77564 10.608 4.38564 10.664 3.94964 10.664H2.17964V14H1.16564V5.6H3.94964ZM3.93164 9.722C4.48764 9.722 4.91964 9.592 5.22764 9.332C5.53964 9.068 5.69564 8.67 5.69564 8.138C5.69564 7.61 5.53964 7.214 5.22764 6.95C4.91964 6.682 4.48764 6.548 3.93164 6.548H2.17964V9.722H3.93164ZM10.1874 8.18C10.5754 8.18 10.9334 8.252 11.2614 8.396C11.5894 8.54 11.8714 8.742 12.1074 9.002C12.3434 9.262 12.5274 9.574 12.6594 9.938C12.7914 10.302 12.8574 10.704 12.8574 11.144C12.8574 11.584 12.7914 11.986 12.6594 12.35C12.5274 12.71 12.3434 13.02 12.1074 13.28C11.8714 13.54 11.5894 13.742 11.2614 13.886C10.9334 14.03 10.5754 14.102 10.1874 14.102C9.79939 14.102 9.44139 14.03 9.11339 13.886C8.78939 13.742 8.50939 13.54 8.27339 13.28C8.03739 13.02 7.85339 12.71 7.72139 12.35C7.58939 11.986 7.52339 11.584 7.52339 11.144C7.52339 10.704 7.58939 10.302 7.72139 9.938C7.85339 9.574 8.03739 9.262 8.27339 9.002C8.50939 8.742 8.78939 8.54 9.11339 8.396C9.44139 8.252 9.79939 8.18 10.1874 8.18ZM10.1874 9.08C9.93939 9.08 9.71139 9.128 9.50339 9.224C9.29539 9.32 9.11539 9.458 8.96339 9.638C8.81539 9.818 8.69939 10.036 8.61539 10.292C8.53139 10.544 8.48939 10.828 8.48939 11.144C8.48939 11.46 8.53139 11.746 8.61539 12.002C8.69939 12.254 8.81539 12.47 8.96339 12.65C9.11539 12.826 9.29539 12.962 9.50339 13.058C9.71139 13.154 9.93939 13.202 10.1874 13.202C10.4354 13.202 10.6634 13.154 10.8714 13.058C11.0794 12.962 11.2594 12.826 11.4114 12.65C11.5634 12.47 11.6814 12.254 11.7654 12.002C11.8534 11.746 11.8974 11.46 11.8974 11.144C11.8974 10.828 11.8534 10.544 11.7654 10.292C11.6814 10.036 11.5634 9.818 11.4114 9.638C11.2594 9.458 11.0794 9.32 10.8714 9.224C10.6634 9.128 10.4354 9.08 10.1874 9.08ZM22.2535 8.288L20.3815 14H19.3075L17.8555 9.434L16.4155 14H15.3475L13.4755 8.288H14.4715L15.9175 12.92L17.3815 8.288H18.3535L19.8295 12.92L21.2755 8.288H22.2535ZM27.8841 11.144C27.8841 11.2 27.8821 11.258 27.8781 11.318C27.8781 11.378 27.8741 11.434 27.8661 11.486H23.8881C23.9161 11.782 23.9781 12.042 24.0741 12.266C24.1701 12.486 24.2921 12.67 24.4401 12.818C24.5921 12.966 24.7661 13.076 24.9621 13.148C25.1581 13.22 25.3701 13.256 25.5981 13.256C25.9101 13.256 26.1961 13.198 26.4561 13.082C26.7161 12.962 26.9501 12.804 27.1581 12.608L27.6561 13.262C27.3441 13.574 27.0081 13.792 26.6481 13.916C26.2921 14.04 25.9201 14.102 25.5321 14.102C25.1401 14.102 24.7821 14.034 24.4581 13.898C24.1381 13.758 23.8621 13.56 23.6301 13.304C23.4021 13.048 23.2241 12.738 23.0961 12.374C22.9721 12.01 22.9101 11.6 22.9101 11.144C22.9101 10.692 22.9721 10.284 23.0961 9.92C23.2201 9.556 23.3941 9.246 23.6181 8.99C23.8461 8.73 24.1161 8.53 24.4281 8.39C24.7401 8.25 25.0841 8.18 25.4601 8.18C25.8161 8.18 26.1421 8.25 26.4381 8.39C26.7381 8.53 26.9941 8.73 27.2061 8.99C27.4221 9.246 27.5881 9.556 27.7041 9.92C27.8241 10.284 27.8841 10.692 27.8841 11.144ZM26.9241 10.706C26.9001 10.45 26.8481 10.22 26.7681 10.016C26.6921 9.808 26.5901 9.632 26.4621 9.488C26.3341 9.344 26.1841 9.234 26.0121 9.158C25.8401 9.078 25.6521 9.038 25.4481 9.038C25.2321 9.038 25.0341 9.078 24.8541 9.158C24.6781 9.234 24.5241 9.344 24.3921 9.488C24.2601 9.632 24.1501 9.808 24.0621 10.016C23.9781 10.22 23.9221 10.45 23.8941 10.706H26.9241ZM31.665 8.18C31.985 8.18 32.265 8.234 32.505 8.342L32.307 9.29C32.191 9.234 32.061 9.192 31.917 9.164C31.773 9.136 31.631 9.122 31.491 9.122C31.291 9.122 31.111 9.16 30.951 9.236C30.791 9.308 30.653 9.412 30.537 9.548C30.421 9.684 30.331 9.848 30.267 10.04C30.207 10.232 30.177 10.446 30.177 10.682V14H29.235V8.288H30.153V8.966C30.321 8.702 30.533 8.506 30.789 8.378C31.045 8.246 31.337 8.18 31.665 8.18ZM38.0091 11.144C38.0091 11.2 38.0071 11.258 38.0031 11.318C38.0031 11.378 37.9991 11.434 37.9911 11.486H34.0131C34.0411 11.782 34.1031 12.042 34.1991 12.266C34.2951 12.486 34.4171 12.67 34.5651 12.818C34.7171 12.966 34.8911 13.076 35.0871 13.148C35.2831 13.22 35.4951 13.256 35.7231 13.256C36.0351 13.256 36.3211 13.198 36.5811 13.082C36.8411 12.962 37.0751 12.804 37.2831 12.608L37.7811 13.262C37.4691 13.574 37.1331 13.792 36.7731 13.916C36.4171 14.04 36.0451 14.102 35.6571 14.102C35.2651 14.102 34.9071 14.034 34.5831 13.898C34.2631 13.758 33.9871 13.56 33.7551 13.304C33.5271 13.048 33.3491 12.738 33.2211 12.374C33.0971 12.01 33.0351 11.6 33.0351 11.144C33.0351 10.692 33.0971 10.284 33.2211 9.92C33.3451 9.556 33.5191 9.246 33.7431 8.99C33.9711 8.73 34.2411 8.53 34.5531 8.39C34.8651 8.25 35.2091 8.18 35.5851 8.18C35.9411 8.18 36.2671 8.25 36.5631 8.39C36.8631 8.53 37.1191 8.73 37.3311 8.99C37.5471 9.246 37.7131 9.556 37.8291 9.92C37.9491 10.284 38.0091 10.692 38.0091 11.144ZM37.0491 10.706C37.0251 10.45 36.9731 10.22 36.8931 10.016C36.8171 9.808 36.7151 9.632 36.5871 9.488C36.4591 9.344 36.3091 9.234 36.1371 9.158C35.9651 9.078 35.7771 9.038 35.5731 9.038C35.3571 9.038 35.1591 9.078 34.9791 9.158C34.8031 9.234 34.6491 9.344 34.5171 9.488C34.3851 9.632 34.2751 9.808 34.1871 10.016C34.1031 10.22 34.0471 10.45 34.0191 10.706H37.0491ZM44.202 5.36V14H43.272V13.316C43.064 13.556 42.81 13.748 42.51 13.892C42.214 14.032 41.866 14.102 41.466 14.102C41.11 14.102 40.782 14.03 40.482 13.886C40.182 13.742 39.922 13.54 39.702 13.28C39.482 13.02 39.31 12.71 39.186 12.35C39.062 11.986 39 11.584 39 11.144C39 10.704 39.062 10.302 39.186 9.938C39.31 9.574 39.482 9.262 39.702 9.002C39.922 8.742 40.182 8.54 40.482 8.396C40.782 8.252 41.11 8.18 41.466 8.18C41.862 8.18 42.208 8.25 42.504 8.39C42.8 8.53 43.052 8.72 43.26 8.96V5.36H44.202ZM41.64 13.208C41.888 13.208 42.114 13.16 42.318 13.064C42.522 12.964 42.698 12.824 42.846 12.644C42.994 12.464 43.108 12.248 43.188 11.996C43.268 11.74 43.308 11.456 43.308 11.144C43.308 10.832 43.268 10.548 43.188 10.292C43.108 10.036 42.994 9.818 42.846 9.638C42.698 9.458 42.522 9.32 42.318 9.224C42.114 9.124 41.888 9.074 41.64 9.074C41.388 9.074 41.158 9.124 40.95 9.224C40.746 9.324 40.57 9.466 40.422 9.65C40.278 9.83 40.166 10.048 40.086 10.304C40.006 10.556 39.966 10.836 39.966 11.144C39.966 11.452 40.006 11.734 40.086 11.99C40.166 12.242 40.278 12.458 40.422 12.638C40.57 12.818 40.746 12.958 40.95 13.058C41.158 13.158 41.388 13.208 41.64 13.208ZM51.3595 8.18C51.7155 8.18 52.0435 8.252 52.3435 8.396C52.6475 8.54 52.9075 8.742 53.1235 9.002C53.3435 9.262 53.5155 9.574 53.6395 9.938C53.7635 10.302 53.8255 10.704 53.8255 11.144C53.8255 11.584 53.7635 11.986 53.6395 12.35C53.5155 12.71 53.3435 13.02 53.1235 13.28C52.9075 13.54 52.6475 13.742 52.3435 13.886C52.0435 14.03 51.7155 14.102 51.3595 14.102C50.9595 14.102 50.6095 14.028 50.3095 13.88C50.0135 13.728 49.7635 13.526 49.5595 13.274V14H48.6295V5.36H49.5715V8.996C49.7755 8.744 50.0235 8.546 50.3155 8.402C50.6115 8.254 50.9595 8.18 51.3595 8.18ZM51.1915 13.208C51.4435 13.208 51.6715 13.158 51.8755 13.058C52.0835 12.958 52.2595 12.818 52.4035 12.638C52.5475 12.458 52.6595 12.242 52.7395 11.99C52.8195 11.734 52.8595 11.452 52.8595 11.144C52.8595 10.836 52.8195 10.556 52.7395 10.304C52.6595 10.048 52.5475 9.83 52.4035 9.65C52.2595 9.466 52.0835 9.324 51.8755 9.224C51.6715 9.124 51.4435 9.074 51.1915 9.074C50.9435 9.074 50.7155 9.124 50.5075 9.224C50.3035 9.32 50.1275 9.458 49.9795 9.638C49.8355 9.818 49.7215 10.036 49.6375 10.292C49.5575 10.548 49.5175 10.832 49.5175 11.144C49.5175 11.456 49.5575 11.74 49.6375 11.996C49.7215 12.248 49.8355 12.464 49.9795 12.644C50.1275 12.824 50.3035 12.964 50.5075 13.064C50.7155 13.16 50.9435 13.208 51.1915 13.208ZM59.7448 8.288L55.7728 16.298H54.7528L56.5228 12.836L54.2308 8.288H55.2688L57.0268 11.852L58.7248 8.288H59.7448Z" fill="#151515"/>
<g clip-path="url(#clip1_1_29105)">
<path d="M96.4697 12.9503H95.2151L95.1639 12.1167C94.3408 13.4903 92.3414 13.0662 91.4587 11.959C90.0297 10.1675 91.0461 7.0514 93.4905 6.91142C94.675 6.84352 94.9508 7.67503 96.0529 7.54027V8.89304C95.7228 8.85439 95.2861 8.96094 94.9769 8.8711C94.7785 8.8126 94.5413 8.41147 94.2144 8.27881C92.5378 7.60086 91.4921 10.1225 92.6537 11.2883C93.3682 12.0049 94.4233 11.8075 94.7983 10.8694H93.6482C93.6628 10.6605 93.5667 9.72454 93.8059 9.72454H96.4697V12.9492V12.9503Z" fill="#151515"/>
<path d="M108.169 7.02228V8.94645C108.169 9.20029 107.046 9.07702 106.81 9.10314V8.27059H105.349V9.31101L106.5 9.37056V10.5593L105.349 10.5583V11.8066H106.812V10.7661H108.17V12.9504H103.365L103.41 11.9037L103.995 11.747L103.993 8.26954L103.411 8.17239L103.366 7.02124H108.171L108.169 7.02228Z" fill="#151515"/>
<path d="M99.499 7.02222V8.1671H98.9767V11.0272C98.9767 11.1108 99.2849 11.5642 99.4186 11.6268C99.9994 11.8963 100.961 11.6394 100.961 10.9228V8.1671H100.334V7.02326H102.736V8.16815H102.318V10.5081C102.318 10.6616 102.15 11.3333 102.085 11.5245C101.489 13.2721 98.9475 13.5688 98.0136 11.9862C97.9488 11.8765 97.6177 11.0805 97.6177 11.0283V8.16815H97.0943V7.02431H99.4969L99.499 7.02222Z" fill="#151515"/>
<path d="M109.945 10.7662C109.655 12.1806 111.971 12.0114 111.461 10.9741C111.198 10.4382 109.249 10.5918 108.746 9.309C107.998 7.4026 110.202 6.35486 111.825 7.07459C112.287 7.27933 112.479 7.70971 112.663 7.80373C112.793 7.86954 113.048 7.83506 113.074 7.86014C113.109 7.89461 113.102 8.7188 113.079 8.84311C112.99 9.32258 112.01 9.02487 111.616 9.10321C111.949 8.05339 110.122 7.70971 110.044 8.53599C109.986 9.15753 111.65 9.35288 112.107 9.60149C113.436 10.3233 113.243 12.2736 111.88 12.8492C110.946 13.243 110.087 13.1082 109.282 12.5191C109.004 12.3154 109.002 11.9163 108.488 12.0093L108.483 10.7662H109.945Z" fill="#151515"/>
<path d="M118.615 7.02222V8.89415H117.361L117.362 8.0616H116.525V11.8065H117.153V12.9503H114.646V11.8055H115.273V8.21724C115.273 8.03548 114.689 8.04175 114.541 8.06055V8.89415H113.288V7.02222H118.615Z" fill="#151515"/>
<path d="M140.134 7.02222V7.64689H139.507V9.41541H142.955V7.80358L142.328 7.64794V7.02326H144.313V7.64794H143.686V12.2243L144.268 12.3205C144.378 12.474 144.309 12.9524 144.156 12.9524H142.328V12.2243H142.955V10.1445H139.507V12.2243L140.089 12.3205C140.2 12.474 140.131 12.9524 139.977 12.9524H138.149V12.2243H138.672V7.64794H138.148V7.02431H140.133L140.134 7.02222Z" fill="#151515"/>
<path d="M131.464 7.02222V8.68627H130.628V7.64585H128.539V9.51778H130.315V10.2459H128.539V12.2223H130.628V11.2852L131.464 11.2863V12.9503H127.181V12.2223H127.703V7.64585L127.181 7.64689V7.02222H131.464Z" fill="#151515"/>
<path d="M136.648 7.58214C136.713 7.62706 136.728 7.79106 136.86 7.83598C137.365 8.00521 137.358 7.59154 137.315 8.58183C136.234 8.83358 136.164 7.79211 135.164 7.65526C131.599 7.16743 132.22 13.4706 135.613 12.1408C136.531 11.7804 136.304 10.7024 137.314 11.2884C136.398 13.9762 132.417 13.4173 132.014 10.6867C131.577 7.71481 134.061 5.79482 136.648 7.58214Z" fill="#151515"/>
<path d="M126.45 7.02222V8.58181L125.614 8.58286V7.64585H124.047V12.2223H124.675L124.674 12.9503H122.794V12.2223H123.316V7.64585H121.958L121.959 8.58286L121.122 8.58181V7.02222H126.45Z" fill="#151515"/>
<path d="M120.47 12.821C120.124 13.1678 119.336 12.8366 119.607 12.2266C119.952 11.4484 121 12.2914 120.47 12.821Z" fill="#151515"/>
<path d="M86.759 1.50841C86.7465 0.61945 85.9881 0.0511856 85.1399 0L69.2828 0.0292489C68.7009 0.167137 68.2977 0.429332 68.0334 0.969393L68 18.8342C68.3061 19.5143 68.8336 19.8047 69.5669 19.8736C74.5821 19.5613 80.0777 20.2758 85.0354 19.8736C86.1061 19.7869 86.6723 19.3503 86.759 18.2618C87.1852 12.88 86.4279 6.94871 86.759 1.50841ZM74.1673 16.8536C73.5542 16.8536 72.3967 15.6973 72.6527 14.9817H80.435C80.4736 14.9817 81.0304 15.2951 81.1067 15.3526C81.5945 15.7192 81.7919 16.2593 81.8452 16.8536H74.1673ZM82.6903 4.22125C82.4197 4.91173 81.8389 4.80518 81.2184 4.78951C83.6607 7.61412 82.4291 12.2908 78.7929 13.3459C72.1481 15.2742 69.1543 5.68369 75.2652 3.38556C76.5093 2.91758 80.53 2.84132 81.8995 3.01786C82.5116 3.09621 82.9232 3.62373 82.6892 4.22125H82.6903Z" fill="#151515"/>
<path d="M77.0223 4.81348C81.5318 4.5962 81.9716 11.3517 77.6135 11.7549C72.7592 12.2041 72.4417 5.03389 77.0223 4.81348Z" fill="#151515"/>
</g>
</g>
<defs>
<clipPath id="clip0_1_29105">
<rect width="144.322" height="20" fill="white"/>
</clipPath>
<clipPath id="clip1_1_29105">
<rect width="76.3219" height="20" fill="white" transform="translate(68)"/>
</clipPath>
</defs>
</svg>
