<svg width="16" height="16" viewBox="0 0 16 16" fill="none" xmlns="http://www.w3.org/2000/svg">
<path fill-rule="evenodd" clip-rule="evenodd" d="M7.99998 2C6.89541 2 5.99998 2.89543 5.99998 4C5.99998 5.10457 6.89541 6 7.99998 6C9.10455 6 9.99998 5.10457 9.99998 4C9.99998 2.89543 9.10455 2 7.99998 2ZM4.99998 4C4.99998 2.34315 6.34312 1 7.99998 1C9.65683 1 11 2.34315 11 4C11 5.65685 9.65683 7 7.99998 7C6.34312 7 4.99998 5.65685 4.99998 4ZM3.51804 13.0939C4.89486 13.6772 6.40924 14 8.00019 14C9.59098 14 11.1052 13.6773 12.4819 13.0941C12.2768 10.7991 10.3485 9 7.99998 9C5.65156 9 3.72323 10.799 3.51804 13.0939ZM2.50081 13.4036C2.55237 10.4104 4.99463 8 7.99998 8C11.0054 8 13.4477 10.4105 13.4991 13.4038C13.5026 13.6023 13.3882 13.784 13.2077 13.8668C11.6218 14.5945 9.85766 15 8.00019 15C6.14255 15 4.37827 14.5945 2.79219 13.8666C2.61174 13.7838 2.49739 13.6021 2.50081 13.4036Z" fill="#555250"/>
</svg>
